<svg width="1195" height="109" viewBox="0 0 1195 109" fill="none" xmlns="http://www.w3.org/2000/svg">
<g opacity="0.9" filter="url(#filter0_f_482_1274)">
<path fill-rule="evenodd" clip-rule="evenodd" d="M59.1955 53.3756C54.1811 53.1007 49.0687 51.2859 11.8269 45.881C-2.45026 42.1868 3.69486 37.8875 11.8211 34.1636C25.6436 31.1816 10.9791 32.4591 38.9211 27.1043C66.8632 21.7494 85.1449 19.0714 100.554 16.5528C115.963 14.0342 160.234 8.88111 180.412 8.70719C193.865 8.59124 257.967 8.83401 372.72 9.43545L562.675 12.5697L778.363 17.3908C1000.31 28.8382 1121.18 35.1127 1140.97 36.2145C1170.66 37.8672 1196.04 43.8515 1190.21 55.8306C1184.38 67.8097 1159.63 87.5863 1118.93 93.663C1078.22 99.7396 1036.68 100.098 995.518 98.5439C968.075 97.5081 913.845 95.1126 832.829 91.3574L680.824 84.0787L552.574 78.504L245.349 63.9745L96.9637 57.8307C82.448 57.0015 64.2099 53.6505 59.1955 53.3756Z" fill="#716F7A"/>
</g>
<g opacity="0.8" filter="url(#filter1_f_482_1274)">
<path fill-rule="evenodd" clip-rule="evenodd" d="M165.678 49.5482C161.4 49.3433 137.165 47.5289 105.434 44.1872C93.2888 42.0284 76.7887 36.2765 84.6793 35.3042C96.5152 33.8456 126.066 29.8389 149.984 27.2548C173.902 24.6707 191.981 23.3775 205.166 22.1875C218.351 20.9975 255.612 23.7729 272.841 23.9049C284.327 23.993 339.051 24.8427 437.012 26.4542L599.146 30.2789L783.231 35.3046C972.579 43.9856 1075.7 48.7351 1092.58 49.5531C1117.91 50.78 1139.5 54.3023 1134.39 60.7183C1129.27 67.1343 1107.9 77.5571 1073.08 80.3888C1038.26 83.2204 1002.79 82.9486 967.666 81.6466C944.249 80.7785 897.98 78.8747 828.858 75.935L699.171 70.2932L589.745 65.8397L327.628 54.5353L205.166 51.1875C192.783 50.5762 169.956 49.7531 165.678 49.5482Z" fill="#1F2130"/>
</g>
<defs>
<filter id="filter0_f_482_1274" x="0.269531" y="5.67871" width="1193.78" height="96.6455" filterUnits="userSpaceOnUse" color-interpolation-filters="sRGB">
<feFlood flood-opacity="0" result="BackgroundImageFix"/>
<feBlend mode="normal" in="SourceGraphic" in2="BackgroundImageFix" result="shape"/>
<feGaussianBlur stdDeviation="1.5" result="effect1_foregroundBlur_482_1274"/>
</filter>
<filter id="filter1_f_482_1274" x="65.0355" y="4.30599" width="1087.69" height="95.8695" filterUnits="userSpaceOnUse" color-interpolation-filters="sRGB">
<feFlood flood-opacity="0" result="BackgroundImageFix"/>
<feBlend mode="normal" in="SourceGraphic" in2="BackgroundImageFix" result="shape"/>
<feGaussianBlur stdDeviation="8.7928" result="effect1_foregroundBlur_482_1274"/>
</filter>
</defs>
</svg>
